<svg xmlns="http://www.w3.org/2000/svg" width="56" height="64"><path fill="#86adef" d="M56 64H0l2.271-13.735c.693-4.184 3.603-7.617 7.595-8.959l8.863-2.978V37h2.06v1.762L28 49.666l7.21-10.904V37h2.061v1.328l8.864 2.978c3.992 1.342 6.902 4.775 7.595 8.96zM9.668 60.79l-6.904-.871-.33 2.004h7.121zm-6.565-2.921l6.77.853.214-2.164-6.63-.836zm23.867-1.58l-12.648-7.437 3.547-8.045-7.352 2.47a9.303 9.303 0 00-6.213 7.331l-.507 3.066 6.496.818.2-2.018 2.05.207-.917 9.242H26.97zm-10.016-8.295l10.016 5.89v-2.03l-7.03-10.632zm12.076 5.89l10.016-5.889-2.986-6.772-7.03 10.63zm14.427-1.204l2.05-.207.201 2.019 6.496-.818-.507-3.066a9.311 9.311 0 00-6.215-7.333l-7.352-2.47 3.547 8.045-12.647 7.437v5.635h6.18v-8.308h2.061v8.308h7.103zm2.67 6.042l6.77-.853-.355-2.147-6.63.836zm.205 2.067l.112 1.134h7.123l-.33-2.004z"/><path fill="#86adef" d="M9.7 19.514c-.83 0-1.611-.32-2.198-.903L5 16.13l1.466-1.452 2.502 2.48c.193.19.46.3.733.3h2.251v-2.054C11.952 6.911 18.927 0 27.501 0c8.573 0 15.548 6.91 15.548 15.405v2.055H45.3c.273 0 .54-.11.732-.301l2.502-2.48L50 16.132l-2.502 2.479a3.101 3.101 0 01-2.199.903h-1.24a5.052 5.052 0 011.063 3.08c0 2.636-2.021 4.789-4.604 5.078a11.224 11.224 0 01-2.882 4.819l-4.042 4.005A5.174 5.174 0 0129.93 38h-4.857a5.174 5.174 0 01-3.665-1.504l-4.042-4.005a11.207 11.207 0 01-2.882-4.819c-2.583-.29-4.604-2.442-4.604-5.077 0-1.16.405-2.22 1.063-3.081zm26.47 11.525a9.144 9.144 0 002.733-6.536v-4.99H16.098v4.99c0 2.469.972 4.79 2.733 6.536l4.041 4.005a3.105 3.105 0 002.2.902h4.857c.831 0 1.612-.32 2.2-.902zm-14.058-13.58H32.89l1.733-7.73-7.121-4.41-7.122 4.41zm18.815 8.042c1.228-.41 2.122-1.552 2.122-2.906 0-1.338-.87-2.467-2.073-2.892v4.8c0 .336-.02.668-.049.998zM14.025 17.46h5.964l-1.952-8.702 9.463-5.86 9.464 5.86-1.952 8.702h5.964v-2.054h-3.11v-2.054H40.8C39.797 6.963 34.224 2.054 27.5 2.054c-6.723 0-12.296 4.91-13.298 11.297h2.933v2.054h-3.11zm0 2.244c-1.203.425-2.073 1.554-2.073 2.892 0 1.354.894 2.495 2.122 2.907-.029-.33-.049-.663-.049-1z"/></svg>