<svg xmlns="http://www.w3.org/2000/svg" width="66" height="66"><path fill="#86adef" d="M56.1 31.9A1.1 1.1 0 0155 33h-2.2v2.339a4.383 4.383 0 01.999 8.104l8.256 8.257H64.9a1.1 1.1 0 011.1 1.1v9.9a1.1 1.1 0 01-1.1 1.1H38.5a1.1 1.1 0 01-1.1-1.1v-9.9a1.1 1.1 0 011.1-1.1h2.845l8.256-8.257A4.386 4.386 0 0147.3 39.6v-1.1h2.2v1.1a2.2 2.2 0 102.2-2.2 1.1 1.1 0 01-1.1-1.1V33h-2.2a1.1 1.1 0 01-1.1-1.1V16.5h-22v20.445l4.078 4.077a1.1 1.1 0 01.322.778v17.6h2.2V66h-22v-6.6h2.2V41.8a1.1 1.1 0 01.322-.778l4.078-4.077V16.5H1.1A1.1 1.1 0 010 15.4V11c0-.006.002-.012.004-.019a.06.06 0 00.004-.018 1.1 1.1 0 01.077-.38v-.013c.053-.12.128-.23.22-.323.032-.03.067-.058.103-.084.047-.046.098-.087.152-.123l17.6-9.9a.235.235 0 01.039-.016l.036-.014a1.03 1.03 0 01.077-.031l.008-.003a1.1 1.1 0 01.38-.077h4.4c.084 0 .169.008.25.026l41.8 9.9c.02.005.035.013.052.022a.28.28 0 00.039.018c.06.02.118.046.173.077.187.1.34.252.44.44.03.052.054.106.074.162.025.076.04.154.048.234.01.04.018.08.024.121v4.4a1.1 1.1 0 01-1.1 1.1h-8.8zm7.7-19.8h-7.7v2.2h7.7zM39.6 53.9v7.7h24.2v-7.7zm12.1-9.444L44.455 51.7h14.49zM53.9 16.5h-4.4v9.9h4.4zm-4.4-2.2h4.4v-2.2h-4.4zM19.8 9.9H22V2.2h-2.2zm3.3 2.2h-4.4v2.2h3.945l.455-.455zm0 4.855L19.155 20.9l3.945 3.945zm-2.655-.455H18.7v1.745zM18.7 31.445l3.945-3.945-3.945-3.944zm4.4-1.29L19.155 34.1l3.945 3.945zm-4.4 14.49l3.945-3.945-3.945-3.945zm4.4 6.6v-7.89L19.155 47.3zm-4.4 6.6l3.945-3.945-3.945-3.944zm4.4 1.555v-2.845L20.255 59.4zM5.299 9.9H17.6V2.981zM2.2 12.1v2.2h14.3v-2.2zm12.1 47.3h2.2V40.056l-2.2 2.2zm15.4 4.4v-2.2H12.1v2.2zm-4.4-23.744V59.4h2.2V42.256zm0-25.756h22v-2.2h-22zm30.183-4.4L24.2 2.49V9.9zM49.5 28.6v2.2h4.4v-2.2z"/></svg>