<svg xmlns="http://www.w3.org/2000/svg" width="66" height="66"><path fill="#86adef" d="M38.929 22c.591 0 1.071.485 1.071 1.083v10.834c0 .598-.48 1.083-1.071 1.083H26.072A1.078 1.078 0 0125 33.917v-2.539c0-.287.113-.562.314-.766l8.204-8.295c.2-.203.473-.317.757-.317zM27.143 32.833h10.714v-8.666h-3.138l-7.576 7.66zM33 57.5a4.5 4.5 0 119 0 4.5 4.5 0 01-9 0zm2.25 0a2.25 2.25 0 104.5 0 2.25 2.25 0 00-4.5 0zm11.75 0a4.5 4.5 0 119 0 4.5 4.5 0 01-9 0zm2.25 0a2.25 2.25 0 104.5 0 2.25 2.25 0 00-4.5 0zM21 57.5a4.5 4.5 0 119 0 4.5 4.5 0 01-9 0zm2.25 0a2.25 2.25 0 104.5 0 2.25 2.25 0 00-4.5 0z"/><path fill="#86adef" d="M59.4 46.2v4.488A7.7 7.7 0 0158.3 66H18.7a7.7 7.7 0 01-1.1-15.312V45.1a1.1 1.1 0 011.1-1.1h1.1V29.7a1.1 1.1 0 01.322-.777l2.258-2.26L8.457 12.742l-2.775 18.06h7.76l.891-3.569a1.1 1.1 0 012.134.535l-1.1 4.4-3.3 13.2a1.1 1.1 0 01-1.677.648l-9.9-6.6A1.1 1.1 0 010 38.5V1.1A1.1 1.1 0 011.1 0h6.6a1.1 1.1 0 01.778.322L28.6 20.445l2.522-2.523c.207-.206.486-.322.778-.322h11a1.1 1.1 0 011.1 1.1V33h20.9a1.1 1.1 0 011.1 1.1v11a1.1 1.1 0 01-1.1 1.1zM44 35.2V44h19.8v-8.8zM2.2 37.91l8.112 5.408L12.89 33H2.2zm21.736-12.803L27.045 22 7.244 2.2H2.2v28.6h1.256l3.152-20.54a1.1 1.1 0 011.87-.61zm.778 2.333L22 30.156V44h19.8V19.8h-9.444l-2.978 2.978zM58.3 52.8H18.7a5.5 5.5 0 000 11h39.6a5.507 5.507 0 005.5-5.5 5.507 5.507 0 00-5.5-5.5zm-38.5-2.2h37.4v-4.4H19.8z"/></svg>