<svg xmlns="http://www.w3.org/2000/svg" width="73" height="66"><path fill="#86adef" d="M73 32.997a2.59 2.59 0 00-.874-1.935V19.529A2.134 2.134 0 0073 17.81c0-.887-.55-1.666-1.374-1.996a1.1 1.1 0 00-.583-.165H47.458V4.62a2.495 2.495 0 001.157-2.099c0-1.045-.655-1.963-1.632-2.34A1.103 1.103 0 0046.375 0h-32.22c-.597 0-1.082.47-1.082 1.051s.485 1.052 1.083 1.052h31.913c.017.005.033.01.05.013a.42.42 0 01.33.405.42.42 0 01-.33.406 1.058 1.058 0 00-.828 1.021v16.83c0 .392.224.751.58.932.357.181.578.535.578.923 0 .387-.221.741-.577.922-.357.182-.58.54-.58.931v17.027c0 .39.223.75.58.931.356.181.577.534.577.923 0 .388-.221.741-.577.922-.357.181-.58.54-.58.932v16.83c0 .485.342.908.828 1.022a.42.42 0 01.329.405c0 .193-.136.36-.33.405a1.25 1.25 0 00-.05.014H2.598a.426.426 0 01-.431-.419c0-.23.193-.418.432-.418.598 0 1.084-.471 1.084-1.052V45.366c0-.46-.31-.867-.762-1.004a1.04 1.04 0 01-.754-.995c0-.459.303-.859.754-.994.452-.137.762-.544.762-1.005V24.632c0-.46-.31-.868-.762-1.004a1.04 1.04 0 01-.754-.995c0-.46.303-.86.754-.995.452-.137.762-.544.762-1.004V3.99c0-.58-.487-1.051-1.085-1.051a.426.426 0 01-.431-.419c0-.23.193-.418.432-.418h5.892c.598 0 1.083-.47 1.083-1.052C9.574.471 9.089 0 8.49 0H2.598C1.165 0 0 1.13 0 2.521c0 1.016.622 1.893 1.516 2.292v15.155A3.108 3.108 0 000 22.633c0 1.108.585 2.1 1.516 2.664v15.405A3.108 3.108 0 000 43.367c0 1.108.585 2.1 1.516 2.665v15.154C.622 61.585 0 62.462 0 63.48 0 64.869 1.165 66 2.6 66h58.142c.599 0 1.084-.47 1.084-1.051s-.485-1.052-1.084-1.052H48.58c.023-.137.037-.276.037-.418 0-.866-.45-1.643-1.158-2.1v-11.46h4.434c.598 0 1.083-.471 1.083-1.052 0-.58-.485-1.051-1.083-1.051h-4.434v-2.039a3.098 3.098 0 001.158-2.409c0-.943-.431-1.818-1.158-2.408v-7.123h18.866c.598 0 1.083-.47 1.083-1.051 0-.582-.485-1.052-1.083-1.052H47.458v-6.691a3.098 3.098 0 001.158-2.41c0-.942-.431-1.818-1.158-2.407v-2.471h23.319a.06.06 0 01.01.002c.014.003.047.019.047.055 0 .037-.033.053-.046.056a1.059 1.059 0 00-.828 1.022v12.708c0 .39.223.75.58.931a.53.53 0 01.294.47.526.526 0 01-.292.467c-.358.18-.582.54-.582.932v12.856c0 .392.224.751.582.932a.55.55 0 01.211.19c.054.085.08.178.08.278a.53.53 0 01-.294.47c-.356.18-.58.54-.58.93v12.708c0 .486.343.909.83 1.023a.056.056 0 01.03.018c.015.017.015.03.015.036 0 .038-.033.053-.046.056l-.011.003h-4.453c-.598 0-1.083.471-1.083 1.052 0 .58.485 1.051 1.083 1.051h4.719c.215 0 .415-.06.583-.165A2.154 2.154 0 0073 63.838a2.134 2.134 0 00-.874-1.715V50.588a2.575 2.575 0 000-3.87V34.934A2.59 2.59 0 0073 32.998z"/><path fill="#86adef" d="M68 49c0-.552-.48-1-1.07-1h-9.86c-.59 0-1.07.448-1.07 1s.48 1 1.07 1h9.86c.59 0 1.07-.448 1.07-1zM42 22.164c0-.59-.488-1.07-1.09-1.07h-6.618A15.42 15.42 0 0025 18a15.384 15.384 0 00-9.281 3.094h-6.63A1.08 1.08 0 008 22.164c0 .591.488 1.07 1.09 1.07h4.324c-2.3 2.626-3.691 6.04-3.691 9.766 0 3.727 1.392 7.14 3.692 9.767H9.09A1.08 1.08 0 008 43.837c0 .59.488 1.07 1.09 1.07h6.63A15.38 15.38 0 0025 48c3.466 0 6.706-1.139 9.303-3.094h6.607a1.08 1.08 0 001.09-1.07c0-.59-.488-1.07-1.09-1.07h-4.303a14.868 14.868 0 003.213-6.11 1.069 1.069 0 00-.792-1.297 1.093 1.093 0 00-1.322.777 12.783 12.783 0 01-4.387 6.805c-.065.041-.125.09-.18.143A13.239 13.239 0 0125 45.86c-7.221 0-13.097-5.769-13.097-12.86 0-7.09 5.876-12.86 13.098-12.86 3.265 0 6.392 1.187 8.807 3.34 2.397 2.14 3.898 5.054 4.223 8.204a1.084 1.084 0 001.195.956 1.075 1.075 0 00.974-1.172 14.808 14.808 0 00-3.607-8.234h4.318a1.08 1.08 0 001.09-1.07z"/><path fill="#86adef" d="M15.426 31.118h5.5a3.616 3.616 0 01.844-1.415l-2.75-4.613a1.347 1.347 0 01-.136-1.07 1.4 1.4 0 01.705-.842A10.81 10.81 0 0124.5 22c1.71 0 3.408.407 4.91 1.177.341.176.599.481.705.84.107.359.058.75-.135 1.072l-2.75 4.613c.388.403.678.888.844 1.416h5.5c.385 0 .759.154 1.027.423.267.268.413.637.398 1.01-.127 3.363-1.964 6.443-4.913 8.239a1.464 1.464 0 01-1.099.17 1.43 1.43 0 01-.892-.65l-2.751-4.613a3.864 3.864 0 01-1.69 0l-2.75 4.611a1.43 1.43 0 01-1.233.69c-.266 0-.53-.071-.758-.21-2.948-1.795-4.785-4.874-4.912-8.237a1.363 1.363 0 01.4-1.01c.266-.27.64-.423 1.025-.423zm6.343 3.525a3.637 3.637 0 01-.846-1.417h-4.68c.286 2.118 1.431 4.039 3.184 5.343zm3.512-3.78c-1.76-.958-3.299 1.645-1.562 2.619zm4.29 7.707c1.754-1.304 2.9-3.226 3.187-5.344h-4.682a3.619 3.619 0 01-.846 1.418zm-1.885-13.85a8.602 8.602 0 00-6.373 0l2.34 3.926a3.897 3.897 0 011.692-.001z"/></svg>