<svg xmlns="http://www.w3.org/2000/svg" width="51" height="64"><path fill="#86adef" d="M26.003 39c-6.293 0-11.469-4.922-11.947-11.152a5.31 5.31 0 01-3.998-3.469 1.04 1.04 0 01.628-1.322 1.028 1.028 0 011.31.634 3.24 3.24 0 003.051 2.18 1.03 1.03 0 011.027 1.035c0 5.526 4.455 10.021 9.929 10.021 5.475 0 9.93-4.495 9.93-10.02 0-.573.46-1.037 1.026-1.037 1.364 0 2.588-.87 3.046-2.166.192-.539.78-.818 1.313-.626.534.192.812.785.622 1.325a5.315 5.315 0 01-3.99 3.445C37.473 34.078 32.297 39 26.003 39zm13.983-20H11.014c-.56 0-1.014-.455-1.014-1.017 0-7.017 4.488-13.023 11.168-14.944.539-.153 1.1.157 1.254.697a1.018 1.018 0 01-.695 1.259c-5.475 1.576-9.255 6.314-9.661 11.97h26.869c-.406-5.603-4.138-10.327-9.544-11.936a1.018 1.018 0 01.578-1.952C36.567 5.042 41 11.032 41 17.983c0 .562-.454 1.017-1.014 1.017z"/><path fill="#86adef" d="M22 19c-.552 0-1-.458-1-1.023V1.365c0-.48.327-.897.786-.999C22.793.14 24.216 0 25.5 0c1.284 0 2.707.14 3.714.366.459.103.786.519.786 1v16.61c0 .567-.448 1.024-1 1.024zm6-16.777a18.853 18.853 0 00-5 0v14.73h5zM40 15h-5a1 1 0 010-2h5a1 1 0 110 2zm-24 0h-4a1 1 0 010-2h4a1 1 0 110 2z"/><path fill="#86adef" d="M8.027 24A1.013 1.013 0 017 23v-5c0-.553.46-1 1.027-1h35.946c.567 0 1.027.447 1.027 1v5c0 .553-.46 1-1.027 1zm34.919-5H9.054v3h33.892zM26.655 44c-3.62 0-7.328-1.59-9.447-4.007-.638.11-1.276.257-1.902.435-.536.153-1.101-.133-1.263-.639-.16-.506.142-1.04.678-1.191a20.83 20.83 0 012.77-.588c.374-.05.753.097.975.39 1.64 2.171 5.008 3.688 8.19 3.688 3.002 0 5.739-1.343 7.51-3.682a1.04 1.04 0 01.977-.39c.71.101 1.42.242 2.108.419.54.137.86.663.714 1.173-.147.509-.702.814-1.243.671A17.668 17.668 0 0035.428 40c-2.158 2.55-5.32 4-8.772 4zM50 60H40c-.552 0-1-.46-1-1.03 0-.569.448-1.03 1-1.03h9v-1.274c0-6.072-2.971-11.59-7.95-14.76a1.049 1.049 0 01-.324-1.418.983.983 0 011.377-.333C47.674 43.703 51 49.875 51 56.667v2.304C51 59.54 50.552 60 50 60zm-38.989 0H.99A1 1 0 010 58.99v-2.26c0-6.11 3.131-11.925 8.374-15.556a.975.975 0 011.373.27 1.024 1.024 0 01-.264 1.403c-4.7 3.255-7.506 8.444-7.506 13.883v1.25h9.034A1 1 0 0112 58.99a1 1 0 01-.989 1.01z"/><path fill="#86adef" d="M11.644 64a1.02 1.02 0 01-1.02-.9L8.007 39.332a1 1 0 01.276-.803l3.104-3.216c.242-.25.597-.361.94-.295.345.067.63.302.759.623l4.844 12.213h14.14l4.845-12.213a1.035 1.035 0 011.699-.328l3.104 3.216a.999.999 0 01.276.803l-2.618 23.766a1.02 1.02 0 01-1.02.901zm28.26-24.42l-1.666-1.724-4.512 11.375a1.025 1.025 0 01-.955.642H17.229c-.423 0-.802-.255-.955-.642l-4.512-11.375-1.666 1.725 2.468 22.401h24.872z"/></svg>