<svg xmlns="http://www.w3.org/2000/svg" width="42" height="70"><path fill="#86adef" d="M42 2.233v14.41c0 .344-.16.668-.432.88a1.13 1.13 0 01-.965.203l-15.272-3.793v4.016a15.391 15.391 0 016.286 5.24 15.161 15.161 0 012.726 8.698v36.996A1.12 1.12 0 0133.218 70H4.614c-.62 0-1.124-.5-1.124-1.117V31.887c0-3.127.943-6.134 2.726-8.698a15.39 15.39 0 016.286-5.24v-5.99h-4.57a1.12 1.12 0 01-1.124-1.118 1.12 1.12 0 011.124-1.117h4.57V7.49h-4.57c-3.134 0-5.683 2.412-5.683 5.377a1.12 1.12 0 01-1.125 1.117c-.62 0-1.124-.5-1.124-1.117 0-4.196 3.558-7.61 7.932-7.61h4.67C13.136 2.272 15.763 0 18.917 0a6.416 6.416 0 016.259 4.981L40.603 1.15a1.13 1.13 0 01.965.204c.273.211.432.536.432.88zm-27.25 4.14V17.57h8.333V6.373c0-2.282-1.87-4.139-4.166-4.139-2.298 0-4.167 1.857-4.167 4.14zM5.74 60.818v6.948h26.355v-6.948zM32.045 30.77c-.41-4.859-3.478-9.07-8.064-10.967H13.852C9.265 21.7 6.198 25.911 5.787 30.77h3.325c.62 0 1.124.5 1.124 1.117a1.12 1.12 0 01-1.124 1.117H5.739v25.58h26.355v-25.58H13.61c-.62 0-1.124-.5-1.124-1.117a1.12 1.12 0 011.124-1.117zm-6.714-19.14l14.42 3.582V3.664l-14.42 3.581z"/><path fill="#86adef" d="M18.5 56c-2.376 0-4.452-.828-6.003-2.394-1.605-1.622-2.515-3.928-2.497-6.328.035-4.45 3.183-8.427 3.317-8.594a1.105 1.105 0 011.766.055l.222.315c.542-1.183 1.344-2.626 2.401-3.718a1.105 1.105 0 011.588 0c1.057 1.092 1.86 2.535 2.4 3.718l.223-.316a1.106 1.106 0 011.766-.054c.134.167 3.282 4.144 3.317 8.594.018 2.4-.892 4.706-2.497 6.327C22.953 55.172 20.876 56 18.5 56zm-4.306-14.68c-.827 1.353-1.963 3.633-1.981 5.975-.014 1.813.662 3.544 1.854 4.749 1.127 1.138 2.66 1.739 4.433 1.739 1.773 0 3.306-.602 4.433-1.74 1.192-1.204 1.868-2.935 1.854-4.748-.018-2.341-1.154-4.622-1.981-5.975l-.263.373c-.326.462-.475.673-.91.758a1.106 1.106 0 01-1.274-.773c-.199-.595-.835-2.356-1.859-3.822-1.024 1.466-1.66 3.227-1.859 3.822l-.025.073a1.107 1.107 0 01-.971.719c-.614.033-.867-.323-1.187-.777z"/></svg>