<svg xmlns="http://www.w3.org/2000/svg" width="67" height="64"><path fill="#86adef" d="M52 13c.263 0 .52-.107.707-.293.186-.186.293-.444.293-.707 0-.263-.107-.52-.293-.707A1.007 1.007 0 0052 11a1.01 1.01 0 00-.708.293 1.006 1.006 0 000 1.414c.187.186.444.293.708.293zm14.307 11.113c.427.217.693.64.693 1.103V62.75c0 .69-.586 1.25-1.309 1.25H1.31C.586 64 0 63.44 0 62.75v-43c0-.69.586-1.25 1.309-1.25v-5.88c0-3.76 3.202-6.818 7.137-6.818h3.596a5.032 5.032 0 013.492-1.304c.273.005.542.03.807.077C17.942 1.798 21.052 0 24.425 0c3.888 0 7.345 2.368 8.657 5.779.202-.018.405-.028.61-.028 3.113 0 5.72 2.116 6.326 4.921h5.963c.723 0 1.309.56 1.309 1.25s-.586 1.25-1.309 1.25h-7.138c-.723 0-1.309-.56-1.309-1.25 0-2.024-1.724-3.67-3.843-3.67-.374 0-.742.052-1.095.152a3.919 3.919 0 00-1.424.746 3.732 3.732 0 00-.848 1 1.318 1.318 0 01-1.146.646c-.214 0-.431-.05-.632-.156-.633-.334-.862-1.095-.512-1.699a6.22 6.22 0 011.42-1.677 6.484 6.484 0 011.122-.745C29.603 4.14 27.163 2.5 24.425 2.5c-2.714 0-5.19 1.625-6.164 4.044a1.28 1.28 0 01-.74.714c-.34.129-.72.116-1.05-.036a2.455 2.455 0 00-.988-.224 2.39 2.39 0 00-1.677.65 2.35 2.35 0 00-.753 1.702c0 1.254 1.07 2.275 2.382 2.275h4.941c.723 0 1.309.56 1.309 1.25s-.586 1.25-1.309 1.25h-4.94c-2.757 0-5-2.142-5-4.775 0-.354.043-.705.123-1.048H8.446c-2.492 0-4.52 1.937-4.52 4.318v5.88h2.31v-1.77c0-1.678 1.43-3.042 3.186-3.042.723 0 1.308.56 1.308 1.25s-.585 1.25-1.308 1.25a.556.556 0 00-.568.542v1.77h1.876c.723 0 1.31.56 1.31 1.25V33.5h20.15V19.75c0-.439.242-.846.636-1.072a1.36 1.36 0 011.288-.031l8.807 4.486V19.75c0-.439.241-.846.635-1.072a1.36 1.36 0 011.289-.031l8.806 4.486V19.75c0-.439.242-.846.636-1.072a1.36 1.36 0 011.288-.031zM9.422 26H2.617v30.5h6.805zm0-5H2.617v2.5h6.805zm0 38H2.617v2.5h6.805zm41.875 2.5V36H12.039v2.5h11.777c.723 0 1.309.56 1.309 1.25S24.539 41 23.816 41H12.04v20.5zm2.617 0h10.469V25.965l-8.113-4.132v3.382c0 .44-.242.846-.636 1.073a1.36 1.36 0 01-1.288.03l-8.807-4.485v3.383c0 .439-.241.845-.635 1.072a1.362 1.362 0 01-1.289.03l-8.806-4.485V33.5h17.797c.722 0 1.308.56 1.308 1.25z"/><path fill="#86adef" d="M21.676 44c.732 0 1.324.592 1.324 1.324v6.352c0 .732-.592 1.324-1.324 1.324h-6.352A1.323 1.323 0 0114 51.676v-6.352c0-.732.592-1.324 1.324-1.324zm-5.029 6.353h3.706v-3.706h-3.706zM34.676 44c.732 0 1.324.592 1.324 1.324v6.352c0 .732-.592 1.324-1.324 1.324h-6.352A1.323 1.323 0 0127 51.676v-6.352c0-.732.592-1.324 1.324-1.324zm-5.029 6.353h3.706v-3.706h-3.706zM47.676 44c.732 0 1.324.592 1.324 1.324v6.352c0 .732-.592 1.324-1.324 1.324h-6.352A1.323 1.323 0 0140 51.676v-6.352c0-.732.592-1.324 1.324-1.324zm-5.029 6.353h3.706v-3.706h-3.706zM28 40c.263 0 .52-.107.707-.293.186-.186.293-.444.293-.707 0-.263-.107-.521-.293-.707A1.007 1.007 0 0028 38a1.003 1.003 0 00-.707 1.707c.186.186.444.293.707.293z"/></svg>