<svg xmlns="http://www.w3.org/2000/svg" width="62" height="70"><path fill="#86adef" d="M61.111 33.21c.535.221.886.745.889 1.328v7.578a1.44 1.44 0 01-1.434 1.443h-1.865v2.887a1.44 1.44 0 01-1.434 1.443H52.12a21.913 21.913 0 01-2.138 5.167l3.643 3.666a1.449 1.449 0 010 2.035L47.53 64.89c-.56.56-1.463.56-2.022 0l-3.643-3.666a21.569 21.569 0 01-5.134 2.15v5.182A1.44 1.44 0 0135.295 70H26.69a1.44 1.44 0 01-1.434-1.443v-5.182a21.592 21.592 0 01-5.12-2.15l-3.643 3.666c-.56.56-1.463.56-2.022 0l-6.095-6.134a1.449 1.449 0 010-2.035l3.642-3.666a21.913 21.913 0 01-2.136-5.167h-5.15A1.439 1.439 0 013.3 46.446v-2.887H1.434A1.44 1.44 0 010 42.116v-7.578c0-.578.344-1.102.875-1.328l2.74-1.169v-1.92c-.04-11.69 7.29-22.12 18.257-25.979V1.444A1.44 1.44 0 0123.305 0h15.347a1.44 1.44 0 011.434 1.444v2.684c10.966 3.858 18.296 14.289 18.257 25.98v1.904zM24.74 27.018h12.477V2.901H24.711zm31.107 17.984l-.014-1.443H42.71c-.654 5.432-4.909 9.713-10.307 10.373-6.48.792-12.37-3.852-13.156-10.373H6.139v1.443h4.775a1.436 1.436 0 011.435 1.14 19.054 19.054 0 002.667 6.322 1.45 1.45 0 01-.187 1.804l-3.427 3.45 4.058 4.084 3.428-3.45a1.428 1.428 0 011.793-.187 18.737 18.737 0 006.31 2.641 1.44 1.44 0 011.133 1.443v4.908h5.737v-4.864a1.442 1.442 0 011.133-1.444 18.796 18.796 0 006.31-2.64 1.427 1.427 0 011.793.187l3.428 3.45 4.102-4.1-3.428-3.45a1.45 1.45 0 01-.186-1.803 19.036 19.036 0 002.624-6.351 1.436 1.436 0 011.435-1.14zM22.158 43.56c.616 3.83 3.6 6.834 7.407 7.453 4.878.794 9.474-2.543 10.262-7.453zM2.854 40.672h56.292V35.52l-2.768-1.198a1.44 1.44 0 01-.875-1.327v-2.887c.04-10.093-6.065-19.183-15.389-22.905v21.26a1.44 1.44 0 01-1.434 1.443H23.306a1.439 1.439 0 01-1.434-1.443V7.202C12.563 10.926 6.465 19.998 6.497 30.078v2.887a1.44 1.44 0 01-.875 1.328L2.854 35.49z"/></svg>