<svg xmlns="http://www.w3.org/2000/svg" width="21" height="22"><path fill="#fff" d="M18.877 2.461C17.13.756 14.308-.069 10.485.005c-3.854.075-6.43.749-8.108 2.12C.755 3.451 0 5.391 0 8.23v2.898c0 3.352 1.803 7.038 5.25 7.595a.727.727 0 00.234-1.435c-2.614-.423-4.024-3.49-4.024-6.16V8.23c0-4.071 1.514-6.624 9.054-6.772 3.418-.067 5.885.62 7.34 2.041C18.99 4.607 19.54 6.155 19.54 8.23v2.898c0 4.388-1.977 6.324-7.05 6.894H8.895a.73.73 0 00-.516.213l-2.534 2.524A.725.725 0 006.36 22c.187 0 .374-.07.516-.213l2.32-2.311h3.335a.724.724 0 00.081-.005c2.903-.32 4.89-1.073 6.255-2.368C20.302 15.743 21 13.788 21 11.128V8.23c0-2.452-.714-4.393-2.123-5.769z"/><path fill="#fff" d="M10.775 4.55c1.249 0 2.423.486 3.306 1.369a4.644 4.644 0 011.37 3.306.775.775 0 001.55 0 6.184 6.184 0 00-1.824-4.402A6.183 6.183 0 0010.775 3a.775.775 0 100 1.55z"/><path fill="#fff" d="M10.725 7.45c1.006 0 1.825.819 1.825 1.825a.725.725 0 101.45 0A3.28 3.28 0 0010.725 6a.725.725 0 000 1.45zm-3.221.902a.72.72 0 00.812 1.187c.258-.177.861-.59.82-1.415-.028-.494-.473-1.199-.842-1.703-.54-.739-1.005-1.183-1.38-1.321a1.593 1.593 0 00-1.088-.008c-.772.26-1.332.73-1.62 1.358-.28.613-.274 1.316.018 2.035.69 1.695 1.658 3.179 2.88 4.416 1.232 1.217 2.716 2.184 4.411 2.875.367.15.73.224 1.079.224.334 0 .656-.069.956-.206.628-.288 1.098-.848 1.358-1.62a1.592 1.592 0 00-.007-1.086c-.139-.377-.584-.842-1.322-1.382-.504-.369-1.21-.814-1.705-.841-.824-.042-1.236.56-1.413.819a.719.719 0 001.187.812c.079-.115.123-.167.149-.19.403.13 1.554.975 1.761 1.3.006.02.007.052-.013.109-.09.27-.267.622-.594.772-.307.14-.656.054-.894-.043-1.519-.619-2.845-1.482-3.935-2.56-1.084-1.096-1.947-2.422-2.566-3.94-.097-.24-.183-.588-.043-.894.15-.328.503-.505.771-.595.058-.02.09-.018.111-.013.324.208 1.17 1.358 1.299 1.761-.023.026-.075.07-.19.149z"/></svg>