<svg xmlns="http://www.w3.org/2000/svg" width="15" height="15"><path fill="#53b43b" d="M1 7.5C1 3.916 3.916 1 7.5 1S14 3.916 14 7.5 11.084 14 7.5 14A6.507 6.507 0 011 7.5zm.852 0A5.654 5.654 0 007.5 13.147 5.654 5.654 0 0013.147 7.5 5.654 5.654 0 007.5 1.853 5.654 5.654 0 001.852 7.5z"/><path fill="none" stroke="#53b43b" stroke-miterlimit="20" stroke-width=".5" d="M1 7.5C1 3.916 3.916 1 7.5 1S14 3.916 14 7.5 11.084 14 7.5 14A6.507 6.507 0 011 7.5zm.852 0A5.654 5.654 0 007.5 13.147 5.654 5.654 0 0013.147 7.5 5.654 5.654 0 007.5 1.853 5.654 5.654 0 001.852 7.5z"/><path fill="#53b43b" d="M9.292 5.139L6.028 8.858l-1.32-1.503a.38.38 0 00-.586 0 .52.52 0 000 .669l1.612 1.838a.39.39 0 00.294.138.39.39 0 00.293-.139h.001l3.556-4.054a.52.52 0 000-.668.38.38 0 00-.586 0z"/><path fill="none" stroke="#53b43b" stroke-miterlimit="20" stroke-width=".5" d="M9.292 5.139v0L6.028 8.858v0l-1.32-1.503a.38.38 0 00-.586 0 .52.52 0 000 .669l1.612 1.838a.39.39 0 00.294.138.39.39 0 00.293-.139h.001l3.556-4.054a.52.52 0 000-.668.38.38 0 00-.586 0z"/></svg>